<?xml version="1.0" encoding="UTF-8" standalone="no"?>
<!-- Created with Inkscape (http://www.inkscape.org/) -->

<svg
   xmlns:dc="http://purl.org/dc/elements/1.1/"
   xmlns:cc="http://creativecommons.org/ns#"
   xmlns:rdf="http://www.w3.org/1999/02/22-rdf-syntax-ns#"
   xmlns:svg="http://www.w3.org/2000/svg"
   xmlns="http://www.w3.org/2000/svg"
   xmlns:sodipodi="http://sodipodi.sourceforge.net/DTD/sodipodi-0.dtd"
   xmlns:inkscape="http://www.inkscape.org/namespaces/inkscape"
   id="svg2"
   version="1.1"
   inkscape:version="0.48.5 r10040"
   width="39.4375"
   height="33.0625"
   xml:space="preserve"
   sodipodi:docname="icon.svg"
   inkscape:export-filename="/home/imacat/Dropbox/openoffice/stattool/excludes/icon.png"
   inkscape:export-xdpi="98.709999"
   inkscape:export-ydpi="98.709999"><metadata
     id="metadata8"><rdf:RDF><cc:Work
         rdf:about=""><dc:format>image/svg+xml</dc:format><dc:type
           rdf:resource="http://purl.org/dc/dcmitype/StillImage" /><dc:title></dc:title></cc:Work></rdf:RDF></metadata><defs
     id="defs6"><clipPath
       clipPathUnits="userSpaceOnUse"
       id="clipPath16"><path
         d="m 0,0.4 841.8,0 0,1190.5 L 0,1190.9 0,0.4 z"
         clip-rule="evenodd"
         id="path18"
         inkscape:connector-curvature="0" /></clipPath><clipPath
       clipPathUnits="userSpaceOnUse"
       id="clipPath24"><path
         d="m 56.7,1120.1 728.4,0 0,14.1 -728.4,0 0,-14.1 z"
         clip-rule="evenodd"
         id="path26"
         inkscape:connector-curvature="0" /></clipPath><clipPath
       clipPathUnits="userSpaceOnUse"
       id="clipPath42"><path
         d="m 56.7,57.2 728.4,0 0,14.1 -728.4,0 0,-14.1 z"
         clip-rule="evenodd"
         id="path44"
         inkscape:connector-curvature="0" /></clipPath><clipPath
       clipPathUnits="userSpaceOnUse"
       id="clipPath1596"><path
         d="m 56.4,88.6 262.8,0 0,1024.6 -262.8,0 0,-1024.6 z"
         clip-rule="evenodd"
         id="path1598"
         inkscape:connector-curvature="0" /></clipPath></defs><sodipodi:namedview
     pagecolor="#ffffff"
     bordercolor="#666666"
     borderopacity="1"
     objecttolerance="10"
     gridtolerance="10"
     guidetolerance="10"
     inkscape:pageopacity="0"
     inkscape:pageshadow="2"
     inkscape:window-width="1920"
     inkscape:window-height="1017"
     id="namedview4"
     showgrid="false"
     fit-margin-top="0"
     fit-margin-left="0"
     fit-margin-right="0"
     fit-margin-bottom="0"
     inkscape:zoom="11.032872"
     inkscape:cx="32.474869"
     inkscape:cy="19.391517"
     inkscape:window-x="0"
     inkscape:window-y="27"
     inkscape:window-maximized="1"
     inkscape:current-layer="g1594" /><g
     id="g10"
     inkscape:groupmode="layer"
     inkscape:label="icon"
     transform="matrix(1.25,0,0,-1.25,-272.46875,1099.7813)"><g
       id="g12"><g
         id="g14"
         clip-path="url(#clipPath16)" /></g><g
       id="g1592"><g
         id="g1594"
         clip-path="url(#clipPath1596)"><path
           d="m 233.7,854 -15.1,0 0,25.2 30.3,0 0,-25.2 -15.2,0 z"
           style="fill:#ffffff;fill-opacity:1;fill-rule:evenodd;stroke:none"
           id="path1874"
           inkscape:connector-curvature="0" /><path
           style="fill:#ffffff;fill-opacity:1;stroke:none"
           d="m 220.63431,854.39648 c 1.51499,0.54147 3.10276,1.98279 4.24867,3.8568 1.16362,1.90297 1.99134,3.72432 3.4711,7.63794 0.57556,1.52221 1.16103,3.05912 1.30105,3.41537 0.14001,0.35625 0.31562,0.80468 0.39023,0.9965 0.80486,2.06922 1.63877,3.7302 2.3019,4.58494 0.77291,0.99622 1.35277,1.14572 2.03903,0.52572 0.91816,-0.8295 1.82295,-2.56712 3.18004,-6.10716 0.45172,-1.17836 1.03973,-2.70301 1.30668,-3.3881 l 0.48536,-1.24563 -2e-5,-5.20672 -3e-5,-5.20672 -9.5415,0.004 c -7.90505,0.004 -9.47993,0.0264 -9.18251,0.13268 z"
           id="path4964"
           inkscape:connector-curvature="0" /><g
           id="g1880"><path
             d="m 233.7,879.2 0,-25.2"
             style="fill:none;stroke:#b3b3b3;stroke-width:1.25;stroke-linecap:butt;stroke-linejoin:round;stroke-miterlimit:10;stroke-opacity:1;stroke-dasharray:1.4433, 1.4433, 1.4433, 1.4433;stroke-dashoffset:0"
             id="path1882"
             inkscape:connector-curvature="0" /></g><path
           style="fill:#ccccff;fill-opacity:1;stroke:none"
           d="m 240.22213,858.64836 3.2e-4,4.40952 0.62519,-1.39511 c 1.29367,-2.88676 2.1059,-4.18641 3.46316,-5.54135 0.80161,-0.80024 1.11079,-1.03339 1.88311,-1.42001 l 0.92403,-0.46257 -3.44806,0 -3.44806,0 3.1e-4,4.40952 z"
           id="path4962"
           inkscape:connector-curvature="0" /><g
           id="g1888"><path
             d="m 218.6,854 30.3,0"
             style="fill:none;stroke:#b3b3b3;stroke-width:1.25;stroke-linecap:butt;stroke-linejoin:round;stroke-miterlimit:10;stroke-opacity:1;stroke-dasharray:none"
             id="path1890"
             inkscape:connector-curvature="0" /></g><g
           id="g1896"><path
             d="m 218.6,854.3 0.2,0 0.1,0.1 0.2,0 0.1,0 0.1,0 0.2,0.1 0.2,0 0.2,0.1 0,0 0.2,0 0.2,0.1 0.2,0.1 0.1,0 0.2,0.1 0.1,0.1 0.1,0 0.2,0.1 0,0 0.2,0.1 0.2,0.1 0.2,0.1 0,0.1 0.2,0 0.1,0.1 0,0.1 0.2,0.1 0,0 0.2,0.2 0,0 0.2,0.1 0,0.1 0.2,0.1 0,0 0.2,0.2 0,0 0.2,0.2 0,0 0.1,0.2 0.1,0 0.1,0.2 0,0 0.1,0.1 0.1,0.1 0.1,0.1 0.1,0.2 0,0 0.2,0.2 0,0 0.1,0.2 0.1,0.1 0,0 0.1,0.2 0.1,0.1 0,0.1 0.1,0.1 0,0.1 0.1,0.1 0.1,0.2 0.1,0 0,0.2 0.1,0.1 0.1,0 0,0.2 0.1,0.1 0.1,0.1 0,0.2 0.1,0.1 0,0.1 0.1,0.1 0.1,0.2 0,0 0.1,0.2 0.1,0.1 0,0.1 0.1,0.2 0.1,0.1 0,0.2 0.1,0.2 0,0 0.1,0.1 0.1,0.2 0,0.2 0.1,0 0,0.2 0.1,0.2 0.1,0.1 0.1,0.2 0,0.1 0,0.1 0.1,0.2 0.1,0.2 0.1,0.1 0,0.2 0.1,0.1 0,0.1 0.1,0.1 0,0.2 0.1,0.1 0,0.1 0.1,0.1 0.1,0.3 0,0.1 0.1,0.2 0,0.2 0.1,0 0,0.2 0.1,0.2 0,0 0.1,0.1 0,0.2 0.1,0.2 0,0 0.1,0.2 0,0.1 0.1,0.2 0,0 0.1,0.1 0,0.2 0.1,0.2 0.1,0.2 0,0.2 0.1,0.1 0,0 0.1,0.2 0,0.2 0.1,0.1 0,0.1 0.1,0.2 0,0.1 0,0.1 0.1,0.1 0,0.1 0.1,0.2 0,0.1 0.1,0.1 0.1,0.2 0,0.2 0,0 0.1,0.1 0,0.2 0.1,0.2 0.1,0.2 0,0.1 0.1,0.1 0,0.1 0.1,0.2 0.1,0.2 0,0 0,0.1 0.1,0.2 0.1,0.2 0,0 0.1,0.2 0,0.1 0,0.1 0.1,0.1 0.1,0.2 0,0.2 0.1,0.2 0.1,0.1 0,0.1 0.1,0.1 0.1,0.2 0,0.1 0.1,0.1 0.1,0.1 0,0.2 0,0 0.1,0.2 0.1,0.1 0,0.1 0.1,0.1 0.1,0.2 0,0 0.1,0.2 0.1,0.1 0,0.1 0.1,0.2 0,0 0.1,0.1 0.1,0.2 0,0 0.2,0.2 0,0 0.1,0.1 0.1,0.1 0.1,0.1 0.1,0.1 0.1,0.1 0.1,0.1 0.1,0.1 0.1,0 0.1,0.1 0.2,0.1 0.2,0.1 0.2,0 0.2,0 0.2,-0.1 0.2,-0.1 0.2,-0.1 0,-0.1 0.1,0 0.2,-0.1 0,-0.1 0.1,-0.1 0.1,-0.1 0.1,-0.1 0.1,-0.1 0,-0.1 0.2,-0.1 0.1,-0.2 0.1,-0.1 0,-0.1 0.1,-0.2 0.1,0 0,-0.1 0.1,-0.2 0.1,0 0,-0.2 0.1,-0.2 0,0 0.1,-0.2 0.1,-0.1 0,-0.1 0.1,-0.1 0.1,-0.2 0,0 0.1,-0.1 0,-0.2 0.1,-0.1 0,-0.1 0.1,-0.2 0.1,-0.1 0,-0.2 0.1,-0.2 0.1,-0.1 0,-0.1 0.1,-0.2 0,-0.1 0.1,-0.1 0,-0.1 0.1,-0.2 0,-0.1 0.1,-0.1 0,-0.1 0.1,-0.3 0,0 0.1,-0.1 0,-0.2 0.1,-0.2 0.1,-0.1 0,-0.2 0.1,-0.1 0,-0.1 0.1,-0.2 0,-0.1 0.1,-0.1 0,-0.1 0.1,-0.2 0.1,-0.2 0,0 0,-0.2 0.1,-0.1 0,-0.2 0.1,0 0,-0.2 0.1,-0.1 0,-0.2 0.1,-0.2 0.1,-0.2 0,-0.2 0.1,-0.1 0.1,-0.2 0,-0.1 0,-0.1 0.1,-0.1 0.1,-0.2 0,-0.1 0,-0.1 0.1,-0.1 0.1,-0.2 0,-0.1 0,-0.1 0.1,-0.2 0.1,-0.1 0,-0.1 0,-0.1 0.1,-0.2 0.1,-0.2 0.1,-0.2 0,-0.1 0,-0.1 0.1,-0.1 0.1,-0.2 0,-0.2 0,0 0.1,-0.1 0.1,-0.2 0,-0.1 0,-0.1 0.1,-0.2 0.1,-0.2 0,-0.1 0.1,0 0,-0.2 0.1,-0.2 0.1,-0.2 0.1,-0.1 0,-0.1 0.1,-0.1 0,-0.2 0.1,-0.1 0,0 0.1,-0.2 0.1,-0.2 0.1,-0.2 0,-0.2 0,0 0.1,-0.1 0.1,-0.2 0,-0.1 0.1,-0.1 0.1,-0.1 0,-0.1 0.1,-0.1 0.1,-0.2 0,-0.1 0.1,-0.1 0.1,-0.2 0,0 0.1,-0.2 0.1,-0.1 0,-0.1 0.1,-0.1 0.1,-0.2 0,0 0.1,-0.1 0.1,-0.1 0,-0.1 0.1,-0.2 0,0 0.2,-0.2 0,-0.1 0.1,0 0.1,-0.2 0,0 0.1,-0.2 0.1,-0.1 0.1,-0.1 0.1,-0.1 0,0 0.2,-0.2 0,0 0.1,-0.2 0.1,0 0.1,-0.2 0.1,0 0.1,-0.2 0,0 0.2,-0.1 0,-0.1 0.2,-0.1 0,-0.1 0.2,-0.1 0,0 0.2,-0.1 0,-0.1 0.2,-0.1 0.1,0 0.1,-0.1 0.1,-0.1 0.2,-0.1 0.2,-0.1 0,0 0.2,-0.1 0.1,0 0.1,-0.1 0.2,-0.1 0.2,0 0.2,-0.1 0.2,-0.1 0.1,0 0,0 0.2,-0.1 0.2,0 0.2,-0.1 0.2,0 0,0 0.2,0 0.2,-0.1 0.2,0"
             style="fill:none;stroke:#004586;stroke-width:1.25;stroke-linecap:butt;stroke-linejoin:round;stroke-miterlimit:10;stroke-opacity:1;stroke-dasharray:none"
             id="path1898"
             inkscape:connector-curvature="0" /></g><g
           id="g1892"><path
             d="m 239.8,854 0,25.2"
             style="fill:none;stroke:#ff950e;stroke-width:1.25;stroke-linecap:butt;stroke-linejoin:round;stroke-miterlimit:10;stroke-opacity:1;stroke-dasharray:none"
             id="path1894"
             inkscape:connector-curvature="0" /></g></g></g></g></svg>