<?xml version="1.0" encoding="UTF-8" standalone="no"?>
<!-- Created with Inkscape (http://www.inkscape.org/) -->

<svg
   xmlns:dc="http://purl.org/dc/elements/1.1/"
   xmlns:cc="http://creativecommons.org/ns#"
   xmlns:rdf="http://www.w3.org/1999/02/22-rdf-syntax-ns#"
   xmlns:svg="http://www.w3.org/2000/svg"
   xmlns="http://www.w3.org/2000/svg"
   xmlns:sodipodi="http://sodipodi.sourceforge.net/DTD/sodipodi-0.dtd"
   xmlns:inkscape="http://www.inkscape.org/namespaces/inkscape"
   id="svg2"
   version="1.1"
   inkscape:version="0.48.5 r10040"
   width="39.4375"
   height="33.0625"
   xml:space="preserve"
   sodipodi:docname="icon.pdf"><metadata
     id="metadata8"><rdf:RDF><cc:Work
         rdf:about=""><dc:format>image/svg+xml</dc:format><dc:type
           rdf:resource="http://purl.org/dc/dcmitype/StillImage" /><dc:title></dc:title></cc:Work></rdf:RDF></metadata><defs
     id="defs6"><clipPath
       clipPathUnits="userSpaceOnUse"
       id="clipPath16"><path
         d="m 0,0.4 841.8,0 0,1190.5 L 0,1190.9 0,0.4 z"
         clip-rule="evenodd"
         id="path18"
         inkscape:connector-curvature="0" /></clipPath><clipPath
       clipPathUnits="userSpaceOnUse"
       id="clipPath24"><path
         d="m 56.7,1120.1 728.4,0 0,14.1 -728.4,0 0,-14.1 z"
         clip-rule="evenodd"
         id="path26"
         inkscape:connector-curvature="0" /></clipPath><clipPath
       clipPathUnits="userSpaceOnUse"
       id="clipPath42"><path
         d="m 56.7,57.2 728.4,0 0,14.1 -728.4,0 0,-14.1 z"
         clip-rule="evenodd"
         id="path44"
         inkscape:connector-curvature="0" /></clipPath><clipPath
       clipPathUnits="userSpaceOnUse"
       id="clipPath1596"><path
         d="m 56.4,88.6 454.8,0 0,1024.6 -454.8,0 0,-1024.6 z"
         clip-rule="evenodd"
         id="path1598"
         inkscape:connector-curvature="0" /></clipPath></defs><sodipodi:namedview
     pagecolor="#ffffff"
     bordercolor="#666666"
     borderopacity="1"
     objecttolerance="10"
     gridtolerance="10"
     guidetolerance="10"
     inkscape:pageopacity="0"
     inkscape:pageshadow="2"
     inkscape:window-width="1920"
     inkscape:window-height="1017"
     id="namedview4"
     showgrid="false"
     fit-margin-top="0"
     fit-margin-left="0"
     fit-margin-right="0"
     fit-margin-bottom="0"
     inkscape:zoom="14.347796"
     inkscape:cx="26.312007"
     inkscape:cy="14.493742"
     inkscape:window-x="0"
     inkscape:window-y="27"
     inkscape:window-maximized="1"
     inkscape:current-layer="g1594" /><g
     id="g10"
     inkscape:groupmode="layer"
     inkscape:label="icon"
     transform="matrix(1.25,0,0,-1.25,-272.46875,721.78125)"><g
       id="g12"><g
         id="g14"
         clip-path="url(#clipPath16)" /></g><g
       id="g1592"><g
         id="g1594"
         clip-path="url(#clipPath1596)"><path
           d="m 233.7,551.6 -15.1,0 0,25.1 30.3,0 0,-25.1 -15.2,0 z"
           style="fill:#ffffff;fill-opacity:1;fill-rule:evenodd;stroke:none"
           id="path1734"
           inkscape:connector-curvature="0" /><path
           style="fill:#ffffff;fill-opacity:1;stroke:none"
           d="m 219.12342,551.57702 c 1.66933,0.36584 2.66848,0.90678 3.85003,2.08439 1.87462,1.86837 3.06365,4.23447 5.83199,11.60536 2.18051,5.80578 3.13888,7.63104 4.26929,8.13107 0.42588,0.18839 0.47428,0.18999 0.87667,0.029 1.18419,-0.47382 2.21125,-2.42535 4.5209,-8.59021 l 0.99954,-2.66796 0,-5.37253 0,-5.37252 -10.48646,0.008 c -8.92666,0.007 -10.39357,0.0286 -9.86196,0.14514 z"
           id="path4728"
           inkscape:connector-curvature="0" /><g
           id="g1740"><path
             d="m 233.7,576.8 0,-25.2"
             style="fill:none;stroke:#b3b3b3;stroke-width:1.25;stroke-linecap:butt;stroke-linejoin:round;stroke-miterlimit:10;stroke-opacity:1;stroke-dasharray:1.4433, 1.4433, 1.4433, 1.4433;stroke-dashoffset:0"
             id="path1742"
             inkscape:connector-curvature="0" /></g><path
           style="fill:#ccccff;fill-opacity:1;stroke:none"
           d="m 239.93424,556.54443 c 0.003,3.12464 0.0308,5.0036 0.0724,4.9127 0.0371,-0.081 0.28566,-0.6771 0.55245,-1.32477 2.29838,-5.57982 4.44164,-7.9334 7.79723,-8.56239 0.24862,-0.0466 -1.05848,-0.0716 -4.02952,-0.0772 l -4.39751,-0.008 0.005,5.05989 z"
           id="path4726"
           inkscape:connector-curvature="0" /><g
           id="g1748"><path
             d="m 218.6,551.6 30.3,0"
             style="fill:none;stroke:#b3b3b3;stroke-width:1.25;stroke-linecap:butt;stroke-linejoin:round;stroke-miterlimit:10;stroke-opacity:1;stroke-dasharray:none"
             id="path1750"
             inkscape:connector-curvature="0" /></g><g
           id="g1752"><path
             d="m 239.8,551.6 0,25.2"
             style="fill:none;stroke:#b3b3b3;stroke-width:1.25;stroke-linecap:butt;stroke-linejoin:round;stroke-miterlimit:10;stroke-opacity:1;stroke-dasharray:none"
             id="path1754"
             inkscape:connector-curvature="0" /></g><g
           id="g1756"><path
             d="m 218.6,551.8 0.2,0.1 0.1,0 0.2,0.1 0.1,0 0.1,0 0.2,0 0.2,0.1 0.2,0 0,0 0.2,0.1 0.2,0 0.2,0.1 0.1,0.1 0.2,0.1 0.1,0 0.1,0.1 0.2,0 0,0.1 0.2,0 0.2,0.1 0.2,0.1 0,0.1 0.2,0.1 0.1,0.1 0,0 0.2,0.1 0,0.1 0.2,0.1 0,0 0.2,0.2 0,0 0.2,0.1 0,0.1 0.2,0.1 0,0.1 0.2,0.1 0,0.1 0.1,0.1 0.1,0 0.1,0.2 0,0 0.1,0.2 0.1,0.1 0.1,0.1 0.1,0.1 0,0 0.2,0.2 0,0.1 0.1,0.1 0.1,0.1 0,0.1 0.1,0.1 0.1,0.1 0,0.1 0.1,0.2 0,0 0.1,0.2 0.1,0.1 0.1,0 0,0.2 0.1,0.1 0.1,0.1 0,0.2 0.1,0.1 0.1,0.1 0,0.1 0.1,0.1 0,0.1 0.1,0.2 0.1,0.1 0,0 0.1,0.3 0.1,0.1 0,0 0.1,0.2 0.1,0.2 0,0.1 0.1,0.2 0,0.1 0.1,0.1 0.1,0.2 0,0.1 0.1,0.1 0,0.1 0.1,0.2 0.1,0.2 0.1,0.2 0,0 0,0.1 0.1,0.2 0.1,0.2 0.1,0.1 0,0.3 0.1,0.1 0,0 0.1,0.2 0,0.2 0.1,0 0,0.1 0.1,0.2 0.1,0.2 0,0.2 0.1,0.2 0,0.1 0.1,0 0,0.2 0.1,0.2 0,0.1 0.1,0.1 0,0.1 0.1,0.2 0,0.1 0.1,0.1 0,0.2 0.1,0.1 0,0.1 0.1,0.1 0,0.2 0.1,0.1 0.1,0.2 0,0.2 0.1,0.1 0,0.1 0.1,0.1 0,0.2 0.1,0.2 0,0 0.1,0.2 0,0.1 0,0.2 0.1,0 0,0.2 0.1,0.2 0,0 0.1,0.2 0.1,0.1 0,0.2 0,0.1 0.1,0.1 0,0.2 0.1,0.1 0.1,0.2 0,0.2 0.1,0.1 0,0 0.1,0.2 0.1,0.2 0,0.1 0,0.1 0.1,0.2 0.1,0.1 0,0.1 0.1,0.1 0,0.2 0,0.1 0.1,0.1 0.1,0.1 0,0.2 0.1,0.2 0.1,0.2 0,0.1 0.1,0.1 0.1,0.1 0,0.2 0.1,0 0.1,0.2 0,0.1 0,0 0.1,0.2 0.1,0.2 0,0 0.1,0.2 0.1,0.1 0,0.1 0.1,0.1 0.1,0.1 0,0.1 0.1,0.2 0,0 0.1,0.2 0.1,0.1 0,0 0.2,0.2 0,0.1 0.1,0.1 0.1,0.1 0.1,0.1 0.1,0.1 0.1,0 0.1,0.1 0.1,0.1 0.1,0.1 0.1,0.1 0.2,0.1 0.2,0 0.2,0 0.2,0 0.2,-0.1 0.2,0 0.2,-0.1 0,-0.1 0.1,-0.1 0.2,-0.1 0,0 0.1,-0.2 0.1,0 0.1,-0.2 0.1,0 0,-0.1 0.2,-0.2 0.1,-0.2 0.1,-0.1 0,0 0.1,-0.2 0.1,-0.1 0,-0.1 0.1,-0.2 0.1,0 0,-0.2 0.1,-0.1 0,0 0.1,-0.2 0.1,-0.2 0,0 0.1,-0.2 0.1,-0.1 0,-0.1 0.1,-0.1 0,-0.2 0.1,-0.1 0,-0.1 0.1,-0.2 0.1,-0.1 0,-0.2 0.1,-0.2 0.1,0 0,-0.2 0.1,-0.1 0,-0.2 0.1,0 0,-0.2 0.1,-0.1 0,-0.2 0.1,0 0,-0.2 0.1,-0.2 0,0 0.1,-0.2 0,-0.2 0.1,-0.1 0.1,-0.2 0,-0.2 0.1,-0.1 0,0 0.1,-0.2 0,-0.2 0.1,-0.1 0,-0.1 0.1,-0.2 0.1,-0.1 0,-0.1 0,-0.1 0.1,-0.2 0,-0.1 0.1,-0.1 0,-0.1 0.1,-0.2 0,-0.2 0.1,-0.2 0.1,-0.1 0,-0.2 0.1,-0.2 0.1,-0.2 0,-0.1 0,0 0.1,-0.2 0.1,-0.2 0,-0.1 0,0 0.1,-0.2 0.1,-0.2 0,-0.1 0,-0.1 0.1,-0.1 0.1,-0.2 0,-0.1 0,-0.1 0.1,-0.1 0.1,-0.2 0.1,-0.2 0,-0.2 0,-0.1 0.1,-0.1 0.1,-0.1 0,-0.2 0,0 0.1,-0.2 0.1,-0.2 0,-0.1 0,-0.1 0.1,-0.1 0.1,-0.2 0,-0.1 0.1,-0.1 0,-0.2 0.1,-0.1 0.1,-0.2 0.1,-0.2 0,-0.1 0.1,-0.1 0,-0.1 0.1,-0.2 0,0 0.1,-0.2 0.1,-0.2 0.1,-0.1 0,-0.2 0,0 0.1,-0.2 0.1,-0.2 0,0 0.1,-0.2 0.1,-0.1 0,-0.1 0.1,-0.1 0.1,-0.2 0,0 0.1,-0.1 0.1,-0.2 0,-0.1 0.1,-0.1 0.1,-0.2 0,0 0.1,-0.1 0.1,-0.2 0,0 0.1,-0.2 0.1,-0.1 0,-0.1 0.1,-0.2 0,0 0.2,-0.1 0,-0.1 0.1,-0.1 0.1,-0.2 0,0 0.1,-0.2 0.1,-0.1 0.1,0 0.1,-0.2 0,0 0.2,-0.2 0,0 0.1,-0.1 0.1,-0.1 0.1,-0.1 0.1,-0.1 0.1,-0.1 0,-0.1 0.2,-0.1 0,0 0.2,-0.2 0,0 0.2,-0.2 0,0 0.2,-0.1 0,0 0.2,-0.1 0.1,-0.1 0.1,-0.1 0.1,-0.1 0.2,-0.1 0.2,0 0,-0.1 0.2,-0.1 0.1,0 0.1,0 0.2,-0.1 0.2,-0.1 0.2,-0.1 0.2,0 0.1,-0.1 0,0 0.2,0 0.2,-0.1 0.2,0 0.2,0 0,0 0.2,-0.1 0.2,0 0.2,-0.1"
             style="fill:none;stroke:#004586;stroke-width:1.25;stroke-linecap:butt;stroke-linejoin:round;stroke-miterlimit:10;stroke-opacity:1;stroke-dasharray:none"
             id="path1758"
             inkscape:connector-curvature="0" /></g></g></g></g></svg>