<?xml version="1.0" encoding="UTF-8" standalone="no"?>
<!-- Created with Inkscape (http://www.inkscape.org/) -->

<svg
   xmlns:dc="http://purl.org/dc/elements/1.1/"
   xmlns:cc="http://creativecommons.org/ns#"
   xmlns:rdf="http://www.w3.org/1999/02/22-rdf-syntax-ns#"
   xmlns:svg="http://www.w3.org/2000/svg"
   xmlns="http://www.w3.org/2000/svg"
   xmlns:sodipodi="http://sodipodi.sourceforge.net/DTD/sodipodi-0.dtd"
   xmlns:inkscape="http://www.inkscape.org/namespaces/inkscape"
   id="svg2"
   version="1.1"
   inkscape:version="0.48.5 r10040"
   width="88.161522"
   height="73.662498"
   xml:space="preserve"
   sodipodi:docname="webicon.svg"
   inkscape:export-filename="/home/imacat/Dropbox/openoffice/stattool/excludes/webicon.png"
   inkscape:export-xdpi="98.709999"
   inkscape:export-ydpi="98.709999"><metadata
     id="metadata8"><rdf:RDF><cc:Work
         rdf:about=""><dc:format>image/svg+xml</dc:format><dc:type
           rdf:resource="http://purl.org/dc/dcmitype/StillImage" /><dc:title></dc:title></cc:Work></rdf:RDF></metadata><defs
     id="defs6"><clipPath
       clipPathUnits="userSpaceOnUse"
       id="clipPath16"><path
         d="m 0,0.4 841.8,0 0,1190.5 L 0,1190.9 0,0.4 z"
         clip-rule="evenodd"
         id="path18"
         inkscape:connector-curvature="0" /></clipPath><clipPath
       clipPathUnits="userSpaceOnUse"
       id="clipPath24"><path
         d="m 56.7,1120.1 728.4,0 0,14.1 -728.4,0 0,-14.1 z"
         clip-rule="evenodd"
         id="path26"
         inkscape:connector-curvature="0" /></clipPath><clipPath
       clipPathUnits="userSpaceOnUse"
       id="clipPath42"><path
         d="m 56.7,57.2 728.4,0 0,14.1 -728.4,0 0,-14.1 z"
         clip-rule="evenodd"
         id="path44"
         inkscape:connector-curvature="0" /></clipPath><clipPath
       clipPathUnits="userSpaceOnUse"
       id="clipPath1596"><path
         d="m 56.4,88.6 262.8,0 0,1024.6 -262.8,0 0,-1024.6 z"
         clip-rule="evenodd"
         id="path1598"
         inkscape:connector-curvature="0" /></clipPath></defs><sodipodi:namedview
     pagecolor="#ffffff"
     bordercolor="#666666"
     borderopacity="1"
     objecttolerance="10"
     gridtolerance="10"
     guidetolerance="10"
     inkscape:pageopacity="0"
     inkscape:pageshadow="2"
     inkscape:window-width="706"
     inkscape:window-height="432"
     id="namedview4"
     showgrid="false"
     fit-margin-top="0"
     fit-margin-left="0"
     fit-margin-right="0"
     fit-margin-bottom="0"
     inkscape:zoom="2.536356"
     inkscape:cx="54.847676"
     inkscape:cy="38.927731"
     inkscape:window-x="44"
     inkscape:window-y="71"
     inkscape:window-maximized="0"
     inkscape:current-layer="g1594" /><g
     id="g10"
     inkscape:groupmode="layer"
     inkscape:label="icon"
     transform="matrix(1.25,0,0,-1.25,-271.48174,1370.7687)"><g
       id="g12"><g
         id="g14"
         clip-path="url(#clipPath16)" /></g><g
       id="g1592"><g
         id="g1594"
         clip-path="url(#clipPath1596)"><path
           d="m 252.4,1039.1 -33.8,0 0,56.1 67.7,0 0,-56.1 -33.9,0 z"
           style="fill:#ffffff;fill-opacity:1;fill-rule:evenodd;stroke:none"
           id="path1602"
           inkscape:connector-curvature="0" /><g
           id="g1684"><path
             d="m 252.4,1095.2 0,-1.5"
             style="fill:none;stroke:#b3b3b3;stroke-width:2.82999992;stroke-linecap:butt;stroke-linejoin:round;stroke-miterlimit:10;stroke-opacity:1;stroke-dasharray:none"
             id="path1686"
             inkscape:connector-curvature="0" /></g><g
           id="g1688"><path
             d="m 252.4,1092.3 0,-1.4"
             style="fill:none;stroke:#b3b3b3;stroke-width:2.82999992;stroke-linecap:butt;stroke-linejoin:round;stroke-miterlimit:10;stroke-opacity:1;stroke-dasharray:none"
             id="path1690"
             inkscape:connector-curvature="0" /></g><path
           style="fill:#ffffff;fill-opacity:1;stroke:none"
           d="m 222.51266,1040.2011 c 3.82942,1.2515 7.19756,4.2415 10.12299,8.9866 1.02844,1.6681 2.31861,4.0903 3.03769,5.703 0.22859,0.5127 0.54047,1.1831 0.69305,1.4897 0.15259,0.3067 0.34056,0.7332 0.41771,0.9479 0.0772,0.2147 0.29292,0.7165 0.47947,1.1152 0.18656,0.3986 0.67441,1.5779 1.08411,2.6206 0.4097,1.0426 0.8366,2.1215 0.94867,2.3975 0.11206,0.276 0.63598,1.656 1.16426,3.0667 0.52829,1.4107 1.1154,2.9663 1.3047,3.457 0.1893,0.4906 0.43694,1.143 0.55032,1.4497 0.89533,2.4218 1.41506,3.7719 1.99609,5.1855 0.11345,0.276 0.31707,0.7912 0.4525,1.1449 0.13543,0.3537 0.29024,0.6703 0.34403,0.7035 0.0538,0.033 0.0978,0.1298 0.0978,0.2146 0,0.085 0.20073,0.5805 0.44606,1.1017 0.24533,0.5213 0.44606,0.9741 0.44606,1.0064 0,0.2142 1.78499,3.595 2.24298,4.2483 0.172,0.2453 0.41135,0.6217 0.5319,0.8363 0.36062,0.6422 1.59458,1.8458 2.21422,2.1598 0.72471,0.3673 1.1737,0.3699 1.95694,0.011 0.72004,-0.3296 1.81104,-1.4248 2.4415,-2.4508 1.51663,-2.4681 3.11058,-5.6514 3.89981,-7.7883 0.17782,-0.4815 0.39544,-1.0149 0.48362,-1.1854 0.0882,-0.1705 0.22906,-0.5042 0.3131,-0.7416 0.19155,-0.5411 1.33872,-3.5518 1.69412,-4.4462 0.41923,-1.0549 0.80296,-2.062 1.06221,-2.7878 0.60714,-1.6998 0.79847,-2.2135 1.32779,-3.5652 l 0.5664,-1.4463 0,-11.8519 0,-11.8518 -21.55035,0.01 -21.55035,0.01 0.78061,0.2551 z"
           id="path3052"
           inkscape:connector-curvature="0" /><g
           id="g1692"><path
             d="m 252.4,1089.4 0,-1.4"
             style="fill:none;stroke:#b3b3b3;stroke-width:2.82999992;stroke-linecap:butt;stroke-linejoin:round;stroke-miterlimit:10;stroke-opacity:1;stroke-dasharray:none"
             id="path1694"
             inkscape:connector-curvature="0" /></g><g
           id="g1696"><path
             d="m 252.4,1086.5 0,-1.4"
             style="fill:none;stroke:#b3b3b3;stroke-width:2.82999992;stroke-linecap:butt;stroke-linejoin:round;stroke-miterlimit:10;stroke-opacity:1;stroke-dasharray:none"
             id="path1698"
             inkscape:connector-curvature="0" /></g><g
           id="g1700"><path
             d="m 252.4,1083.6 0,-1.4"
             style="fill:none;stroke:#b3b3b3;stroke-width:2.82999992;stroke-linecap:butt;stroke-linejoin:round;stroke-miterlimit:10;stroke-opacity:1;stroke-dasharray:none"
             id="path1702"
             inkscape:connector-curvature="0" /></g><g
           id="g1704"><path
             d="m 252.4,1080.7 0,-1.4"
             style="fill:none;stroke:#b3b3b3;stroke-width:2.82999992;stroke-linecap:butt;stroke-linejoin:round;stroke-miterlimit:10;stroke-opacity:1;stroke-dasharray:none"
             id="path1706"
             inkscape:connector-curvature="0" /></g><g
           id="g1708"><path
             d="m 252.4,1077.8 0,-1.4"
             style="fill:none;stroke:#b3b3b3;stroke-width:2.82999992;stroke-linecap:butt;stroke-linejoin:round;stroke-miterlimit:10;stroke-opacity:1;stroke-dasharray:none"
             id="path1710"
             inkscape:connector-curvature="0" /></g><g
           id="g1712"><path
             d="m 252.4,1074.9 0,-1.4"
             style="fill:none;stroke:#b3b3b3;stroke-width:2.82999992;stroke-linecap:butt;stroke-linejoin:round;stroke-miterlimit:10;stroke-opacity:1;stroke-dasharray:none"
             id="path1714"
             inkscape:connector-curvature="0" /></g><g
           id="g1716"><path
             d="m 252.4,1072.1 0,-1.5"
             style="fill:none;stroke:#b3b3b3;stroke-width:2.82999992;stroke-linecap:butt;stroke-linejoin:round;stroke-miterlimit:10;stroke-opacity:1;stroke-dasharray:none"
             id="path1718"
             inkscape:connector-curvature="0" /></g><g
           id="g1720"><path
             d="m 252.4,1069.2 0,-1.5"
             style="fill:none;stroke:#b3b3b3;stroke-width:2.82999992;stroke-linecap:butt;stroke-linejoin:round;stroke-miterlimit:10;stroke-opacity:1;stroke-dasharray:none"
             id="path1722"
             inkscape:connector-curvature="0" /></g><g
           id="g1724"><path
             d="m 252.4,1066.3 0,-1.4"
             style="fill:none;stroke:#b3b3b3;stroke-width:2.82999992;stroke-linecap:butt;stroke-linejoin:round;stroke-miterlimit:10;stroke-opacity:1;stroke-dasharray:none"
             id="path1726"
             inkscape:connector-curvature="0" /></g><g
           id="g1728"><path
             d="m 252.4,1063.4 0,-1.4"
             style="fill:none;stroke:#b3b3b3;stroke-width:2.82999992;stroke-linecap:butt;stroke-linejoin:round;stroke-miterlimit:10;stroke-opacity:1;stroke-dasharray:none"
             id="path1730"
             inkscape:connector-curvature="0" /></g><g
           id="g1732"><path
             d="m 252.4,1060.5 0,-1.4"
             style="fill:none;stroke:#b3b3b3;stroke-width:2.82999992;stroke-linecap:butt;stroke-linejoin:round;stroke-miterlimit:10;stroke-opacity:1;stroke-dasharray:none"
             id="path1734"
             inkscape:connector-curvature="0" /></g><g
           id="g1736"><path
             d="m 252.4,1057.6 0,-1.4"
             style="fill:none;stroke:#b3b3b3;stroke-width:2.82999992;stroke-linecap:butt;stroke-linejoin:round;stroke-miterlimit:10;stroke-opacity:1;stroke-dasharray:none"
             id="path1738"
             inkscape:connector-curvature="0" /></g><g
           id="g1740"><path
             d="m 252.4,1054.7 0,-1.4"
             style="fill:none;stroke:#b3b3b3;stroke-width:2.82999992;stroke-linecap:butt;stroke-linejoin:round;stroke-miterlimit:10;stroke-opacity:1;stroke-dasharray:none"
             id="path1742"
             inkscape:connector-curvature="0" /></g><g
           id="g1744"><path
             d="m 252.4,1051.8 0,-1.4"
             style="fill:none;stroke:#b3b3b3;stroke-width:2.82999992;stroke-linecap:butt;stroke-linejoin:round;stroke-miterlimit:10;stroke-opacity:1;stroke-dasharray:none"
             id="path1746"
             inkscape:connector-curvature="0" /></g><g
           id="g1748"><path
             d="m 252.4,1049 0,-1.5"
             style="fill:none;stroke:#b3b3b3;stroke-width:2.82999992;stroke-linecap:butt;stroke-linejoin:round;stroke-miterlimit:10;stroke-opacity:1;stroke-dasharray:none"
             id="path1750"
             inkscape:connector-curvature="0" /></g><g
           id="g1752"><path
             d="m 252.4,1046.1 0,-1.5"
             style="fill:none;stroke:#b3b3b3;stroke-width:2.82999992;stroke-linecap:butt;stroke-linejoin:round;stroke-miterlimit:10;stroke-opacity:1;stroke-dasharray:none"
             id="path1754"
             inkscape:connector-curvature="0" /></g><g
           id="g1756"><path
             d="m 252.4,1043.2 0,-1.5"
             style="fill:none;stroke:#b3b3b3;stroke-width:2.82999992;stroke-linecap:butt;stroke-linejoin:round;stroke-miterlimit:10;stroke-opacity:1;stroke-dasharray:none"
             id="path1758"
             inkscape:connector-curvature="0" /></g><g
           id="g1760"><path
             d="m 252.4,1040.3 0,-1.2"
             style="fill:none;stroke:#b3b3b3;stroke-width:2.82999992;stroke-linecap:butt;stroke-linejoin:round;stroke-miterlimit:10;stroke-opacity:1;stroke-dasharray:none"
             id="path1762"
             inkscape:connector-curvature="0" /></g><path
           style="fill:#ccccff;fill-opacity:1;stroke:none"
           d="m 266.86349,1049.8751 0.004,10.0085 0.50581,-1.2267 c 0.2782,-0.6747 0.72789,-1.6943 0.99932,-2.2659 0.27143,-0.5716 0.4935,-1.0593 0.4935,-1.0838 0,-0.1728 2.64104,-5.2698 2.94468,-5.6831 0.1352,-0.184 0.38854,-0.5854 0.56297,-0.8921 0.17443,-0.3066 0.5369,-0.8586 0.80549,-1.2266 2.88788,-3.9568 5.58369,-6.1471 9.06871,-7.3683 l 0.72485,-0.2539 -8.05699,-0.01 -8.05698,-0.01 0.004,10.0085 z"
           id="path3050"
           inkscape:connector-curvature="0" /><g
           id="g1844"><path
             d="m 218.6,1039.1 67.7,0"
             style="fill:none;stroke:#b3b3b3;stroke-width:2.82922006;stroke-linecap:butt;stroke-linejoin:round;stroke-miterlimit:10;stroke-opacity:1;stroke-dasharray:none"
             id="path1846"
             inkscape:connector-curvature="0" /></g><g
           id="g1852"><path
             d="m 218.6,1039.7 0.2,0 0.2,0.1 0.1,0 0.2,0 0.2,0.1 0.1,0 0.1,0 0.2,0 0.2,0.1 0.2,0 0.2,0.1 0,0 0.1,0 0.2,0 0.2,0.1 0.2,0 0,0.1 0.2,0 0.2,0 0.2,0.1 0.2,0.1 0.2,0 0.1,0.1 0.2,0.1 0.2,0 0.1,0.1 0.1,0 0.2,0 0.2,0.1 0,0 0.2,0.1 0.2,0.1 0,0 0.2,0.1 0.2,0 0,0.1 0.1,0.1 0.2,0 0.1,0.1 0.1,0 0.2,0.1 0,0 0.2,0.1 0.1,0.1 0.1,0 0.2,0.2 0,0 0.1,0 0.2,0.2 0.1,0 0.1,0.1 0.1,0.1 0.1,0 0.2,0.1 0.2,0.2 0,0 0.1,0.1 0.1,0.1 0.1,0 0.2,0.2 0,0 0.2,0.1 0.2,0.2 0,0 0.2,0.1 0.1,0.1 0.1,0.1 0,0.1 0.2,0.1 0,0 0.1,0.2 0.1,0 0.1,0.1 0.1,0.1 0.1,0.1 0.1,0.1 0.1,0.1 0.1,0.1 0.1,0.1 0,0 0.2,0.2 0,0 0.2,0.2 0.1,0.2 0.1,0 0.1,0.1 0.1,0.1 0,0.1 0.1,0.1 0.1,0.1 0.1,0.2 0.2,0.2 0,0 0.1,0.1 0.1,0.1 0.1,0.1 0.1,0.2 0.1,0.2 0.1,0 0.1,0.1 0.1,0.2 0,0 0.1,0.2 0.1,0 0,0.2 0.1,0.1 0.1,0.1 0.1,0.1 0,0.1 0.1,0.1 0.1,0.2 0.2,0.2 0,0 0.1,0.2 0.1,0.1 0.1,0.2 0,0.1 0.1,0.1 0.1,0.2 0.1,0.1 0.1,0.2 0.1,0.2 0.1,0.1 0,0.1 0.2,0.1 0,0.1 0,0.1 0.1,0.2 0.1,0 0.1,0.2 0,0.1 0.1,0.1 0.1,0.1 0.1,0.2 0,0.2 0.1,0.2 0.1,0.1 0.1,0.2 0.1,0.1 0.1,0.3 0.1,0.1 0.1,0.2 0.1,0.2 0.1,0.2 0.1,0.1 0.1,0.2 0,0.1 0.1,0.1 0.1,0.2 0,0.1 0,0 0.1,0.3 0.1,0 0,0.1 0.1,0.2 0,0.1 0.2,0.3 0,0.1 0.1,0.2 0.1,0.2 0,0 0.1,0.1 0.1,0.3 0,0.1 0,0 0.1,0.2 0.1,0.2 0.1,0.1 0.1,0.2 0,0.1 0,0.1 0.1,0.1 0.1,0.2 0.1,0.2 0,0.1 0.1,0.2 0,0.1 0.1,0.2 0,0.1 0.1,0.1 0.1,0.1 0,0.2 0.1,0.2 0.1,0.2 0,0.1 0.1,0 0.1,0.2 0,0.1 0,0.1 0.1,0.1 0,0.2 0.1,0.2 0.1,0.2 0.1,0.1 0,0.1 0,0.1 0.1,0.2 0.1,0.2 0.1,0.2 0,0.2 0.1,0.1 0,0 0.1,0.2 0,0.1 0.1,0.1 0,0.1 0.1,0.2 0.1,0.2 0,0.2 0.1,0.2 0,0.1 0.1,0.1 0,0.1 0.1,0.2 0,0.1 0.1,0.1 0,0.1 0.1,0.2 0,0 0.1,0.2 0,0.2 0.1,0 0,0.1 0.1,0.2 0.1,0.2 0,0.2 0.1,0.1 0,0.2 0.1,0.2 0.1,0.2 0,0.1 0.1,0.1 0,0.1 0.1,0.2 0,0.1 0.1,0.1 0,0.2 0.1,0.1 0,0.1 0.1,0.1 0,0.2 0.1,0.2 0.1,0.2 0,0.1 0.1,0.2 0,0.2 0.1,0.2 0.1,0.1 0,0.2 0.1,0.2 0.1,0.1 0,0.1 0,0.1 0.1,0.2 0.1,0.1 0,0.1 0.1,0.2 0,0.1 0,0.1 0.1,0.1 0,0.2 0.1,0.2 0.1,0.2 0,0.1 0.1,0.2 0.1,0.2 0.1,0.2 0,0.1 0.1,0.2 0,0.2 0.1,0.1 0,0.1 0.1,0.1 0,0.2 0.1,0.1 0,0.1 0.1,0.2 0,0.1 0.1,0.1 0,0.1 0.1,0.2 0.1,0.2 0,0.2 0.1,0.1 0,0.2 0.1,0.2 0.1,0.2 0,0.1 0.1,0.1 0,0.1 0.1,0.2 0,0.1 0.1,0.1 0,0.2 0.1,0.1 0.1,0.2 0,0.1 0.1,0.2 0.1,0.2 0,0.2 0.1,0.1 0,0.1 0.1,0.2 0,0.1 0.1,0.1 0,0.1 0.1,0.2 0.1,0.1 0,0.2 0.1,0.2 0,0.1 0.1,0.1 0,0.2 0.1,0.2 0.1,0.2 0.1,0.1 0,0.1 0.1,0.1 0,0.1 0.1,0.2 0,0.1 0.1,0 0,0.2 0.1,0.2 0.1,0.2 0,0.2 0.1,0 0.1,0.2 0,0.2 0.1,0.1 0,0.1 0.1,0.1 0.1,0.2 0,0.2 0.1,0.1 0.1,0.2 0,0.2 0.1,0.1 0.1,0.1 0,0.2 0.1,0.1 0,0 0.1,0.2 0.1,0.2 0.1,0.2 0.1,0.1 0,0.2 0.1,0.2 0.1,0.2 0.1,0.1 0,0.1 0.1,0.1 0.1,0.2 0,0 0.1,0.2 0.1,0.1 0,0.1 0.1,0.1 0.1,0.2 0.1,0.1 0.1,0.2 0.1,0.2 0.1,0.2 0.1,0.2 0.1,0.1 0,0.1 0.1,0.1 0,0.1 0.1,0.1 0.1,0.2 0.2,0.1 0,0.1 0.1,0.2 0.1,0.1 0.1,0.2 0.1,0.1 0.1,0.1 0.1,0.1 0,0 0.2,0.2 0.1,0.2 0.1,0 0.1,0.2 0,0.1 0.1,0 0.1,0.1 0.1,0.1 0.1,0.1 0.1,0.1 0.1,0.1 0.1,0.1 0.1,0 0.1,0.1 0.1,0.1 0.2,0.1 0.2,0.1 0.1,0.1 0,0 0.2,0.1 0.2,0.1 0,0 0.2,0.1 0.2,0 0.2,0 0.2,0 0.1,0 0.2,0 0.2,0 0.2,0 0.2,-0.1 0.2,0 0,-0.1 0.1,0 0.2,-0.1 0.1,0 0.1,-0.1 0.2,-0.1 0.2,-0.1 0.1,-0.1 0.1,-0.1 0.1,-0.1 0.1,-0.1 0.1,0 0.1,-0.1 0.1,-0.1 0,-0.1 0.1,-0.1 0.1,-0.1 0.1,-0.1 0.1,-0.1 0.1,0 0.1,-0.2 0.2,-0.2 0,0 0.1,-0.2 0.1,-0.1 0.1,-0.1 0.1,-0.2 0.1,-0.1 0.1,-0.1 0,-0.1 0.1,-0.2 0.1,-0.2 0.1,-0.1 0.1,0 0.1,-0.2 0,-0.1 0.1,-0.1 0.1,-0.2 0.1,-0.1 0.1,-0.2 0.1,-0.2 0.1,-0.2 0.1,-0.1 0.1,-0.2 0,0 0.1,-0.2 0.1,-0.1 0,-0.1 0.1,-0.2 0.1,-0.1 0,-0.1 0.1,-0.1 0,-0.2 0.1,-0.2 0.1,-0.1 0.1,-0.2 0.1,-0.2 0.1,-0.2 0.1,-0.1 0,-0.1 0,-0.1 0.1,-0.2 0.1,-0.1 0,-0.1 0.1,-0.2 0.1,-0.2 0.1,-0.1 0,-0.2 0.1,-0.2 0.1,-0.1 0,-0.1 0.1,-0.1 0,-0.2 0.1,-0.1 0,-0.1 0.1,-0.2 0.1,-0.2 0.1,-0.1 0.1,-0.2 0,-0.1 0,-0.1 0.1,-0.2 0,-0.1 0.1,-0.1 0,-0.1 0.1,-0.1 0,-0.2 0.1,-0.2 0.1,-0.2 0,-0.1 0.1,-0.1 0.1,-0.2 0,-0.2 0.1,-0.1 0.1,-0.2 0,-0.1 0.1,-0.1 0,-0.1 0.1,-0.2 0,-0.1 0,-0.1 0.1,-0.2 0.1,-0.2 0.1,-0.2 0,-0.1 0.1,-0.2 0.1,-0.2 0.1,-0.1 0,-0.1 0,-0.1 0.1,-0.2 0,-0.1 0,-0.1 0.1,-0.1 0.1,-0.2 0,-0.2 0.1,-0.2 0.1,-0.1 0,-0.2 0.1,-0.2 0.1,-0.2 0,-0.1 0.1,-0.1 0,-0.1 0.1,-0.2 0,-0.1 0,-0.1 0.1,-0.2 0.1,-0.1 0,-0.1 0,-0.1 0.1,-0.2 0.1,-0.2 0,-0.1 0.1,-0.2 0.1,-0.2 0.1,-0.2 0,-0.1 0.1,-0.2 0,-0.2 0.1,-0.2 0.1,-0.1 0,-0.1 0,-0.1 0.1,-0.2 0,-0.1 0.1,-0.1 0.1,-0.2 0,-0.1 0,-0.1 0.1,-0.1 0,-0.2 0.1,-0.2 0,-0.1 0.1,-0.2 0.1,-0.2 0.1,-0.2 0,-0.1 0.1,-0.2 0.1,-0.2 0.1,-0.2 0,-0.1 0,-0.1 0.1,-0.1 0,-0.2 0.1,-0.1 0,-0.1 0.1,-0.2 0,-0.1 0.1,-0.1 0,-0.1 0.1,-0.2 0.1,-0.2 0,-0.2 0.1,-0.1 0,-0.2 0.1,-0.2 0.1,-0.2 0,0 0,-0.2 0.1,0 0.1,-0.2 0,-0.2 0,0 0.1,-0.2 0.1,-0.1 0,-0.1 0.1,-0.2 0,-0.1 0.1,-0.1 0,-0.1 0.1,-0.2 0,-0.2 0.1,-0.2 0.1,-0.2 0,-0.1 0.1,-0.1 0,0 0.1,-0.2 0,-0.1 0.1,-0.1 0,-0.2 0.1,-0.2 0.1,-0.2 0.1,-0.2 0,-0.1 0,0 0.1,-0.2 0.1,-0.2 0,-0.2 0.1,-0.2 0.1,-0.1 0,-0.1 0,-0.1 0.1,-0.1 0.1,-0.1 0,-0.1 0.1,-0.2 0,-0.2 0.1,-0.1 0.1,-0.2 0,-0.1 0.1,-0.1 0,-0.2 0.1,-0.2 0.1,0 0,-0.2 0.1,-0.2 0.1,-0.2 0.1,-0.1 0,-0.1 0,-0.1 0.1,-0.2 0.1,-0.1 0.1,-0.2 0,-0.1 0.1,-0.1 0,-0.1 0.1,-0.3 0.1,0 0,-0.1 0.1,-0.2 0,-0.1 0.1,-0.2 0.1,-0.2 0.1,-0.2 0.1,-0.2 0,0 0.1,-0.1 0.1,-0.2 0,-0.1 0.1,-0.1 0,-0.1 0.1,-0.2 0,-0.1 0.1,-0.1 0.1,-0.2 0.1,-0.2 0.1,-0.1 0.1,-0.2 0.1,-0.2 0.1,-0.2 0.1,-0.2 0.1,-0.2 0,-0.1 0.1,-0.2 0.1,-0.1 0.1,-0.3 0.1,-0.1 0.1,-0.1 0,-0.1 0.1,-0.1 0,-0.1 0.1,-0.2 0.1,-0.1 0,0 0.1,-0.2 0.1,-0.1 0.1,-0.1 0.1,-0.2 0.1,-0.1 0.1,-0.2 0.1,-0.2 0,-0.1 0.1,0 0.1,-0.2 0.1,-0.2 0.1,-0.1 0,-0.1 0.2,-0.2 0.1,-0.2 0,-0.1 0.1,0 0.1,-0.2 0,0 0.2,-0.2 0,-0.1 0.1,0 0.1,-0.2 0,-0.1 0.1,-0.1 0.1,-0.1 0,-0.1 0.2,-0.2 0.1,-0.1 0.1,-0.1 0.1,-0.1 0.1,-0.1 0,-0.1 0.2,-0.2 0.1,-0.2 0,0 0.2,-0.1 0,-0.1 0.1,-0.1 0.1,-0.1 0.1,-0.1 0.1,-0.1 0.2,-0.2 0,0 0.2,-0.2 0,0 0.1,-0.2 0.1,0 0.1,-0.2 0.1,0 0.1,-0.1 0,-0.1 0.2,-0.1 0,-0.1 0.2,-0.1 0,0 0.1,-0.2 0.1,0 0.1,-0.1 0.1,-0.1 0.2,-0.1 0,0 0.2,-0.2 0.2,-0.1 0,-0.1 0.2,-0.1 0,0 0.1,-0.1 0.2,-0.1 0,-0.1 0.2,-0.1 0.2,-0.1 0.1,-0.1 0.1,0 0.2,-0.1 0,-0.1 0.2,-0.1 0,0 0.1,-0.1 0.2,-0.1 0.1,0 0.1,-0.1 0.2,-0.1 0,0 0.2,-0.1 0.1,-0.1 0.1,0 0.2,-0.1 0.1,0 0,-0.1 0.2,0 0.1,-0.1 0.1,0 0.2,-0.1 0.2,-0.1 0,0 0.2,-0.1 0.2,0 0,-0.1 0.2,0 0.2,-0.1 0.1,0 0.2,-0.1 0.2,0 0.2,-0.1 0.2,-0.1 0.2,0 0.2,-0.1 0,0 0.2,0 0.1,-0.1 0.2,0 0.2,0 0.1,0 0.1,-0.1 0.2,0 0.2,-0.1 0.2,0 0.1,0 0.1,0 0.1,-0.1 0.2,0 0.2,0 0.2,-0.1 0.2,0"
             style="fill:none;stroke:#004586;stroke-width:2.82922006;stroke-linecap:butt;stroke-linejoin:round;stroke-miterlimit:10;stroke-opacity:1;stroke-dasharray:none"
             id="path1854"
             inkscape:connector-curvature="0" /></g><g
           id="g1848"><path
             d="m 265.9,1039.1 0,56.1"
             style="fill:none;stroke:#ff950e;stroke-width:2.82922006;stroke-linecap:butt;stroke-linejoin:round;stroke-miterlimit:10;stroke-opacity:1;stroke-dasharray:none"
             id="path1850"
             inkscape:connector-curvature="0" /></g></g></g></g></svg>