<?xml version="1.0" encoding="UTF-8" standalone="no"?>
<!-- Created with Inkscape (http://www.inkscape.org/) -->

<svg
   xmlns:dc="http://purl.org/dc/elements/1.1/"
   xmlns:cc="http://creativecommons.org/ns#"
   xmlns:rdf="http://www.w3.org/1999/02/22-rdf-syntax-ns#"
   xmlns:svg="http://www.w3.org/2000/svg"
   xmlns="http://www.w3.org/2000/svg"
   xmlns:sodipodi="http://sodipodi.sourceforge.net/DTD/sodipodi-0.dtd"
   xmlns:inkscape="http://www.inkscape.org/namespaces/inkscape"
   id="svg2"
   version="1.1"
   inkscape:version="0.48.5 r10040"
   width="88.161522"
   height="73.662498"
   xml:space="preserve"
   sodipodi:docname="webicon.svg"
   inkscape:export-filename="/home/imacat/Dropbox/openoffice/stattool/excludes/webicon.png"
   inkscape:export-xdpi="98.940002"
   inkscape:export-ydpi="98.940002"><metadata
     id="metadata8"><rdf:RDF><cc:Work
         rdf:about=""><dc:format>image/svg+xml</dc:format><dc:type
           rdf:resource="http://purl.org/dc/dcmitype/StillImage" /><dc:title></dc:title></cc:Work></rdf:RDF></metadata><defs
     id="defs6"><clipPath
       clipPathUnits="userSpaceOnUse"
       id="clipPath16"><path
         d="m 0,0.4 841.8,0 0,1190.5 L 0,1190.9 0,0.4 z"
         clip-rule="evenodd"
         id="path18"
         inkscape:connector-curvature="0" /></clipPath><clipPath
       clipPathUnits="userSpaceOnUse"
       id="clipPath24"><path
         d="m 56.7,1120.1 728.4,0 0,14.1 -728.4,0 0,-14.1 z"
         clip-rule="evenodd"
         id="path26"
         inkscape:connector-curvature="0" /></clipPath><clipPath
       clipPathUnits="userSpaceOnUse"
       id="clipPath42"><path
         d="m 56.7,57.2 728.4,0 0,14.1 -728.4,0 0,-14.1 z"
         clip-rule="evenodd"
         id="path44"
         inkscape:connector-curvature="0" /></clipPath><clipPath
       clipPathUnits="userSpaceOnUse"
       id="clipPath1596"><path
         d="m 56.4,88.6 262.8,0 0,1024.6 -262.8,0 0,-1024.6 z"
         clip-rule="evenodd"
         id="path1598"
         inkscape:connector-curvature="0" /></clipPath></defs><sodipodi:namedview
     pagecolor="#ffffff"
     bordercolor="#666666"
     borderopacity="1"
     objecttolerance="10"
     gridtolerance="10"
     guidetolerance="10"
     inkscape:pageopacity="0"
     inkscape:pageshadow="2"
     inkscape:window-width="1920"
     inkscape:window-height="1017"
     id="namedview4"
     showgrid="false"
     fit-margin-top="0"
     fit-margin-left="0"
     fit-margin-right="0"
     fit-margin-bottom="0"
     inkscape:zoom="5.072712"
     inkscape:cx="111.86286"
     inkscape:cy="21.844163"
     inkscape:window-x="0"
     inkscape:window-y="27"
     inkscape:window-maximized="1"
     inkscape:current-layer="g1594" /><g
     id="g10"
     inkscape:groupmode="layer"
     inkscape:label="icon"
     transform="matrix(1.25,0,0,-1.25,-271.48174,1370.7687)"><g
       id="g12"><g
         id="g14"
         clip-path="url(#clipPath16)" /></g><g
       id="g1592"><g
         id="g1594"
         clip-path="url(#clipPath1596)"><path
           d="m 252.4,1039.1 -33.8,0 0,56.1 67.7,0 0,-56.1 -33.9,0 z"
           style="fill:#ffffff;fill-opacity:1;fill-rule:evenodd;stroke:none"
           id="path1602"
           inkscape:connector-curvature="0" /><g
           id="g1684"><path
             d="m 252.4,1095.2 0,-1.5"
             style="fill:none;stroke:#b3b3b3;stroke-width:2.82999992;stroke-linecap:butt;stroke-linejoin:round;stroke-miterlimit:10;stroke-opacity:1;stroke-dasharray:none"
             id="path1686"
             inkscape:connector-curvature="0" /></g><g
           id="g1688"><path
             d="m 252.4,1092.3 0,-1.4"
             style="fill:none;stroke:#b3b3b3;stroke-width:2.82999992;stroke-linecap:butt;stroke-linejoin:round;stroke-miterlimit:10;stroke-opacity:1;stroke-dasharray:none"
             id="path1690"
             inkscape:connector-curvature="0" /></g><path
           style="fill:#ffffff;fill-opacity:1;stroke:none"
           d="m 222.41675,1039.6963 c 1.5954,0.6892 3.62817,1.7847 4.33073,2.3339 4.57841,3.579 7.83599,9.1685 12.82741,22.0097 0.52259,1.3444 1.13872,2.9767 1.36917,3.6272 0.23045,0.6506 0.55133,1.5022 0.71307,1.8925 0.16174,0.3903 0.62447,1.5968 1.0283,2.681 2.16145,5.8033 4.18815,10.2752 5.79339,12.783 0.82166,1.2837 2.31996,2.617 3.08631,2.7465 1.2442,0.2102 2.55344,-0.7392 3.83209,-2.779 0.37944,-0.6052 0.83519,-1.3266 1.01279,-1.6029 0.46486,-0.7232 2.29126,-4.6603 2.97659,-6.4164 0.32157,-0.824 0.75752,-1.8974 0.96876,-2.3853 0.21125,-0.4879 0.38409,-0.9425 0.38409,-1.0103 0,-0.068 0.35037,-1.017 0.7786,-2.1093 0.75273,-1.9201 2.02666,-5.3137 2.78807,-7.427 l 0.36934,-1.0251 0.003,-11.7886 0.003,-11.7885 -21.40867,0.01 c -19.24971,0.01 -21.353,0.034 -20.85669,0.2486 z"
           id="path4938"
           inkscape:connector-curvature="0" /><g
           id="g1692"><path
             d="m 252.4,1089.4 0,-1.4"
             style="fill:none;stroke:#b3b3b3;stroke-width:2.82999992;stroke-linecap:butt;stroke-linejoin:round;stroke-miterlimit:10;stroke-opacity:1;stroke-dasharray:none"
             id="path1694"
             inkscape:connector-curvature="0" /></g><g
           id="g1696"><path
             d="m 252.4,1086.5 0,-1.4"
             style="fill:none;stroke:#b3b3b3;stroke-width:2.82999992;stroke-linecap:butt;stroke-linejoin:round;stroke-miterlimit:10;stroke-opacity:1;stroke-dasharray:none"
             id="path1698"
             inkscape:connector-curvature="0" /></g><g
           id="g1700"><path
             d="m 252.4,1083.6 0,-1.4"
             style="fill:none;stroke:#b3b3b3;stroke-width:2.82999992;stroke-linecap:butt;stroke-linejoin:round;stroke-miterlimit:10;stroke-opacity:1;stroke-dasharray:none"
             id="path1702"
             inkscape:connector-curvature="0" /></g><g
           id="g1704"><path
             d="m 252.4,1080.7 0,-1.4"
             style="fill:none;stroke:#b3b3b3;stroke-width:2.82999992;stroke-linecap:butt;stroke-linejoin:round;stroke-miterlimit:10;stroke-opacity:1;stroke-dasharray:none"
             id="path1706"
             inkscape:connector-curvature="0" /></g><g
           id="g1708"><path
             d="m 252.4,1077.8 0,-1.4"
             style="fill:none;stroke:#b3b3b3;stroke-width:2.82999992;stroke-linecap:butt;stroke-linejoin:round;stroke-miterlimit:10;stroke-opacity:1;stroke-dasharray:none"
             id="path1710"
             inkscape:connector-curvature="0" /></g><g
           id="g1712"><path
             d="m 252.4,1074.9 0,-1.4"
             style="fill:none;stroke:#b3b3b3;stroke-width:2.82999992;stroke-linecap:butt;stroke-linejoin:round;stroke-miterlimit:10;stroke-opacity:1;stroke-dasharray:none"
             id="path1714"
             inkscape:connector-curvature="0" /></g><g
           id="g1716"><path
             d="m 252.4,1072.1 0,-1.5"
             style="fill:none;stroke:#b3b3b3;stroke-width:2.82999992;stroke-linecap:butt;stroke-linejoin:round;stroke-miterlimit:10;stroke-opacity:1;stroke-dasharray:none"
             id="path1718"
             inkscape:connector-curvature="0" /></g><g
           id="g1720"><path
             d="m 252.4,1069.2 0,-1.5"
             style="fill:none;stroke:#b3b3b3;stroke-width:2.82999992;stroke-linecap:butt;stroke-linejoin:round;stroke-miterlimit:10;stroke-opacity:1;stroke-dasharray:none"
             id="path1722"
             inkscape:connector-curvature="0" /></g><g
           id="g1724"><path
             d="m 252.4,1066.3 0,-1.4"
             style="fill:none;stroke:#b3b3b3;stroke-width:2.82999992;stroke-linecap:butt;stroke-linejoin:round;stroke-miterlimit:10;stroke-opacity:1;stroke-dasharray:none"
             id="path1726"
             inkscape:connector-curvature="0" /></g><g
           id="g1728"><path
             d="m 252.4,1063.4 0,-1.4"
             style="fill:none;stroke:#b3b3b3;stroke-width:2.82999992;stroke-linecap:butt;stroke-linejoin:round;stroke-miterlimit:10;stroke-opacity:1;stroke-dasharray:none"
             id="path1730"
             inkscape:connector-curvature="0" /></g><g
           id="g1732"><path
             d="m 252.4,1060.5 0,-1.4"
             style="fill:none;stroke:#b3b3b3;stroke-width:2.82999992;stroke-linecap:butt;stroke-linejoin:round;stroke-miterlimit:10;stroke-opacity:1;stroke-dasharray:none"
             id="path1734"
             inkscape:connector-curvature="0" /></g><g
           id="g1736"><path
             d="m 252.4,1057.6 0,-1.4"
             style="fill:none;stroke:#b3b3b3;stroke-width:2.82999992;stroke-linecap:butt;stroke-linejoin:round;stroke-miterlimit:10;stroke-opacity:1;stroke-dasharray:none"
             id="path1738"
             inkscape:connector-curvature="0" /></g><g
           id="g1740"><path
             d="m 252.4,1054.7 0,-1.4"
             style="fill:none;stroke:#b3b3b3;stroke-width:2.82999992;stroke-linecap:butt;stroke-linejoin:round;stroke-miterlimit:10;stroke-opacity:1;stroke-dasharray:none"
             id="path1742"
             inkscape:connector-curvature="0" /></g><g
           id="g1744"><path
             d="m 252.4,1051.8 0,-1.4"
             style="fill:none;stroke:#b3b3b3;stroke-width:2.82999992;stroke-linecap:butt;stroke-linejoin:round;stroke-miterlimit:10;stroke-opacity:1;stroke-dasharray:none"
             id="path1746"
             inkscape:connector-curvature="0" /></g><g
           id="g1748"><path
             d="m 252.4,1049 0,-1.5"
             style="fill:none;stroke:#b3b3b3;stroke-width:2.82999992;stroke-linecap:butt;stroke-linejoin:round;stroke-miterlimit:10;stroke-opacity:1;stroke-dasharray:none"
             id="path1750"
             inkscape:connector-curvature="0" /></g><g
           id="g1752"><path
             d="m 252.4,1046.1 0,-1.5"
             style="fill:none;stroke:#b3b3b3;stroke-width:2.82999992;stroke-linecap:butt;stroke-linejoin:round;stroke-miterlimit:10;stroke-opacity:1;stroke-dasharray:none"
             id="path1754"
             inkscape:connector-curvature="0" /></g><g
           id="g1756"><path
             d="m 252.4,1043.2 0,-1.5"
             style="fill:none;stroke:#b3b3b3;stroke-width:2.82999992;stroke-linecap:butt;stroke-linejoin:round;stroke-miterlimit:10;stroke-opacity:1;stroke-dasharray:none"
             id="path1758"
             inkscape:connector-curvature="0" /></g><g
           id="g1760"><path
             d="m 252.4,1040.3 0,-1.2"
             style="fill:none;stroke:#b3b3b3;stroke-width:2.82999992;stroke-linecap:butt;stroke-linejoin:round;stroke-miterlimit:10;stroke-opacity:1;stroke-dasharray:none"
             id="path1762"
             inkscape:connector-curvature="0" /></g><path
           style="fill:#ccccff;fill-opacity:1;stroke:none"
           d="m 266.7409,1049.3337 0.009,10.0538 0.31588,-0.7885 c 0.17373,-0.4337 0.44792,-1.0725 0.60931,-1.4194 0.1614,-0.347 0.51619,-1.1623 0.78843,-1.8118 0.54856,-1.3087 2.51219,-5.1166 3.33728,-6.4716 0.66136,-1.0862 1.89305,-2.823 2.73736,-3.86 1.98078,-2.433 4.5242,-4.2958 7.41322,-5.4296 l 0.78853,-0.3095 -8.00361,-0.01 -8.0036,-0.01 0.009,10.0538 z"
           id="path4936"
           inkscape:connector-curvature="0" /><g
           id="g1844"><path
             d="m 218.6,1039.1 67.7,0"
             style="fill:none;stroke:#b3b3b3;stroke-width:2.82922006;stroke-linecap:butt;stroke-linejoin:round;stroke-miterlimit:10;stroke-opacity:1;stroke-dasharray:none"
             id="path1846"
             inkscape:connector-curvature="0" /></g><g
           id="g1852"><path
             d="m 218.6,1039.7 0.4,0.1 0.4,0 0.4,0.1 0.4,0.1 0.4,0.1 0.4,0.1 0.4,0.1 0,0 0.4,0.1 0.4,0.1 0.3,0.2 0.1,0 0.3,0.1 0.4,0.1 0.3,0.1 0.1,0.1 0.4,0.2 0.3,0.1 0.1,0.1 0.4,0.2 0.2,0.1 0.2,0.1 0.4,0.3 0.1,0 0.3,0.2 0.2,0.1 0.2,0.2 0.3,0.2 0.1,0.1 0.4,0.3 0,0 0.4,0.3 0,0.1 0.4,0.3 0,0.1 0.3,0.2 0.2,0.1 0.3,0.4 0,0 0.3,0.4 0.1,0 0.3,0.4 0.1,0 0.2,0.4 0.1,0.1 0.3,0.2 0.1,0.2 0.1,0.2 0.3,0.4 0.3,0.4 0.1,0.1 0.2,0.3 0.2,0.3 0.3,0.4 0.1,0.2 0.1,0.2 0.3,0.4 0,0 0.2,0.3 0.2,0.3 0,0.1 0.2,0.4 0.2,0.2 0.1,0.2 0.2,0.3 0.1,0.2 0.1,0.2 0.2,0.4 0.1,0.2 0.1,0.2 0.2,0.4 0,0.1 0.2,0.2 0.2,0.4 0.1,0.2 0.1,0.2 0.1,0.4 0.1,0.2 0.1,0.2 0.2,0.3 0.1,0.3 0.1,0.1 0.1,0.4 0.2,0.3 0,0.1 0.2,0.3 0.1,0.4 0.1,0.1 0.1,0.3 0.2,0.4 0.1,0.3 0.2,0.4 0.2,0.4 0,0.1 0.1,0.2 0.2,0.4 0.1,0.4 0.2,0.3 0.2,0.5 0,0.1 0.1,0.3 0.1,0.4 0.2,0.3 0.2,0.4 0.1,0.4 0.1,0.2 0,0.1 0.2,0.4 0.1,0.3 0.1,0.2 0.1,0.2 0.1,0.4 0.2,0.4 0.1,0.4 0.1,0.3 0.2,0.4 0.1,0.4 0.2,0.4 0.1,0.2 0,0.2 0.1,0.3 0.2,0.4 0.1,0.2 0,0.2 0.2,0.4 0.1,0.3 0.1,0.1 0.1,0.3 0.1,0.4 0.1,0.3 0.1,0.1 0.1,0.3 0.1,0.4 0.1,0.3 0.1,0.1 0.1,0.4 0.1,0.3 0.1,0.2 0.1,0.2 0.1,0.4 0.2,0.4 0,0.1 0.1,0.3 0.1,0.3 0.2,0.4 0.2,0.4 0.1,0.3 0.1,0.3 0,0.1 0.2,0.4 0.2,0.4 0,0.1 0.1,0.3 0.2,0.3 0.1,0.4 0.1,0.4 0.2,0.4 0.1,0.1 0.1,0.2 0.1,0.4 0.1,0.3 0.1,0.1 0.1,0.4 0.2,0.3 0.1,0.2 0.1,0.2 0.1,0.4 0.2,0.3 0,0.1 0.2,0.3 0.2,0.4 0.2,0.4 0.1,0.4 0.1,0 0.1,0.4 0.2,0.3 0.1,0.1 0.1,0.3 0.2,0.3 0,0.1 0.2,0.3 0.2,0.4 0.3,0.4 0.1,0.2 0.1,0.1 0.3,0.4 0,0.1 0.2,0.3 0.2,0.3 0.1,0.1 0.3,0.3 0,0.1 0.3,0.3 0.1,0.1 0.3,0.3 0.1,0.1 0.3,0.3 0.1,0 0.4,0.3 0.1,0 0.3,0.2 0.4,0.1 0.3,0.1 0.1,0 0.3,0 0.4,0 0.1,0 0.3,-0.1 0.4,-0.1 0.3,-0.2 0.1,0 0.4,-0.3 0,-0.1 0.4,-0.2 0.1,-0.2 0.3,-0.2 0.1,-0.1 0.3,-0.4 0,0 0.3,-0.4 0.1,-0.1 0.2,-0.3 0.2,-0.2 0,-0.1 0.3,-0.4 0.1,-0.1 0.1,-0.3 0.3,-0.4 0.2,-0.4 0.2,-0.3 0,0 0.2,-0.4 0.2,-0.3 0,-0.1 0.2,-0.3 0.1,-0.3 0,-0.1 0.2,-0.4 0.2,-0.4 0.2,-0.4 0.2,-0.3 0,-0.1 0.2,-0.3 0.1,-0.4 0.1,-0.2 0.1,-0.2 0.1,-0.3 0.2,-0.4 0,-0.1 0.2,-0.3 0.1,-0.4 0.1,-0.2 0.1,-0.1 0.1,-0.4 0.2,-0.4 0.1,-0.4 0.2,-0.3 0.1,-0.3 0,-0.1 0.2,-0.4 0.1,-0.4 0.1,-0.1 0.1,-0.3 0.2,-0.3 0.1,-0.4 0.1,-0.4 0.1,-0.3 0.2,-0.3 0,-0.1 0.2,-0.4 0.1,-0.4 0.1,-0.2 0,-0.2 0.2,-0.3 0.1,-0.4 0.1,-0.1 0.1,-0.3 0.1,-0.4 0.1,-0.3 0.1,-0.1 0.1,-0.3 0.1,-0.4 0.1,-0.3 0.1,-0.1 0.1,-0.3 0.1,-0.4 0.1,-0.2 0.1,-0.2 0.1,-0.4 0.2,-0.3 0,-0.2 0.1,-0.2 0.2,-0.4 0.1,-0.4 0.2,-0.4 0.1,-0.3 0.1,-0.4 0.2,-0.4 0.1,-0.3 0.1,-0.2 0.1,-0.2 0.1,-0.4 0.2,-0.4 0,-0.1 0.1,-0.2 0.1,-0.4 0.2,-0.4 0.1,-0.4 0.2,-0.3 0.1,-0.3 0.1,-0.1 0.1,-0.4 0.2,-0.4 0.1,-0.4 0.2,-0.4 0.1,-0.2 0,-0.1 0.2,-0.4 0.2,-0.4 0.1,-0.4 0.2,-0.3 0.1,-0.3 0.1,-0.1 0.1,-0.4 0.2,-0.3 0,-0.1 0.1,-0.3 0.2,-0.4 0.2,-0.4 0.2,-0.3 0,-0.2 0.2,-0.2 0.2,-0.4 0,-0.1 0.1,-0.3 0.2,-0.3 0.1,-0.3 0.1,-0.1 0.2,-0.4 0.1,-0.2 0.1,-0.2 0.2,-0.3 0.1,-0.2 0.1,-0.3 0.2,-0.3 0.1,-0.1 0.1,-0.3 0.3,-0.4 0,0 0.2,-0.3 0.2,-0.3 0,-0.1 0.2,-0.4 0.2,-0.2 0.1,-0.2 0.3,-0.4 0.2,-0.3 0.2,-0.3 0.1,-0.1 0.3,-0.4 0.2,-0.3 0.2,-0.2 0.1,-0.2 0.3,-0.3 0,-0.1 0.3,-0.3 0.1,-0.1 0.3,-0.3 0,-0.1 0.4,-0.3 0,-0.1 0.3,-0.3 0.1,-0.1 0.3,-0.3 0.1,-0.1 0.3,-0.2 0.1,-0.1 0.4,-0.3 0,0 0.4,-0.4 0.1,0 0.3,-0.2 0.2,-0.2 0.2,-0.1 0.4,-0.2 0,-0.1 0.4,-0.2 0.2,-0.1 0.2,-0.1 0.4,-0.3 0.1,0 0.3,-0.1 0.3,-0.2 0.2,-0.1 0.3,-0.1 0.3,-0.1 0.4,-0.1 0.1,-0.1 0.3,-0.1 0.4,-0.1 0.4,-0.1 0,0 0.4,-0.1 0.4,-0.1 0.4,-0.1 0.4,-0.1 0.4,-0.1 0.4,0 0.4,-0.1"
             style="fill:none;stroke:#004586;stroke-width:2.82922006;stroke-linecap:butt;stroke-linejoin:round;stroke-miterlimit:10;stroke-opacity:1;stroke-dasharray:none"
             id="path1854"
             inkscape:connector-curvature="0" /></g><g
           id="g1848"><path
             d="m 265.9,1039.1 0,56.1"
             style="fill:none;stroke:#b3b3b3;stroke-width:2.82922006;stroke-linecap:butt;stroke-linejoin:round;stroke-miterlimit:10;stroke-opacity:1;stroke-dasharray:none"
             id="path1850"
             inkscape:connector-curvature="0" /></g></g></g></g></svg>